<?xml version="1.0" standalone="no"?>
<!DOCTYPE svg PUBLIC "-//W3C//DTD SVG 20010904//EN"
 "http://www.w3.org/TR/2001/REC-SVG-20010904/DTD/svg10.dtd">
<svg version="1.0" xmlns="http://www.w3.org/2000/svg"
 width="1024.000000pt" height="1024.000000pt" viewBox="0 0 1024.000000 1024.000000"
 preserveAspectRatio="xMidYMid meet">
<metadata>
Created by potrace 1.11, written by Peter Selinger 2001-2013
</metadata>
<g transform="translate(0.000000,1024.000000) scale(0.100000,-0.100000)"
fill="#000000" stroke="none">
<path d="M3428 7837 c-334 -114 -437 -528 -195 -785 55 -58 105 -91 190 -125
52 -22 54 -22 1178 -27 l1127 -5 -1253 -1798 c-689 -989 -1262 -1820 -1274
-1847 -53 -124 -65 -302 -27 -423 63 -198 220 -354 426 -424 53 -17 134 -18
1798 -21 l1742 -2 0 744 c0 702 -1 748 -19 805 -53 172 -211 306 -392 334
-237 37 -472 -122 -534 -360 -12 -44 -15 -120 -15 -330 l0 -273 -886 0 c-578
0 -883 3 -879 10 3 5 571 823 1262 1816 690 994 1269 1835 1285 1871 18 38 37
102 46 157 13 84 13 102 -1 187 -41 244 -224 444 -462 504 -51 13 -254 15
-1555 15 l-1495 -1 -67 -22z"/>
</g>
</svg>
